<svg width="62" height="55" viewBox="0 0 62 55" fill="none" xmlns="http://www.w3.org/2000/svg">
<path d="M44.871 7.91788C52.588 13.269 57.7817 20.7063 60.2788 27.1886C62.7759 33.7598 62.5764 39.3758 59.5351 43.1252C56.4637 46.9101 50.9999 48.4743 44.4982 49.1387C37.9985 49.7181 30.4589 49.3978 23.3626 47.4262C9.3273 43.9498 1.45512 31.4382 6.23164 16.6189C10.9376 1.8628 29.3222 -3.41117 44.871 7.91788Z" fill="#9AC7F7"/>
<path d="M22.9918 50.1373C22.9918 52.6013 20.9582 54.5986 18.447 54.5986C15.9378 54.5986 13.9023 52.6013 13.9023 50.1373C13.9023 47.6754 15.9378 45.6781 18.447 45.6781C20.9602 45.6781 22.9918 47.6754 22.9918 50.1373Z" fill="#EAF4FE"/>
<path d="M40.1147 50.6317C40.4472 49.9554 40.6407 49.198 40.6407 48.3952C40.6407 45.5515 38.2887 43.2438 35.3886 43.2438C32.4904 43.2438 30.1364 45.5515 30.1364 48.3952C30.1364 49.1961 30.3279 49.9554 30.6644 50.6317H40.1147Z" fill="#EAF4FE"/>
<path d="M26.1923 20.8764L28.5039 31.3848L30.8176 50.8473H26.1923H21.5669L23.8806 31.3848L26.1923 20.8764Z" fill="#C5E1F9"/>
<path d="M26.1922 20.8764L27.8046 31.3848L29.4149 50.8473H26.1922H22.9696L24.5819 31.3848L26.1922 20.8764Z" fill="#EAF4FE"/>
<path d="M26.1922 20.8764L26.6699 31.3848L27.1455 50.8473H26.1922H25.2369L25.7146 31.3848L26.1922 20.8764Z" fill="#C5E1F9"/>
<path d="M37.5249 50.9224C37.545 50.7484 37.5591 50.5724 37.5591 50.3924C37.5591 47.9305 35.5256 45.9332 33.0144 45.9332C32.305 45.9332 31.6359 46.0973 31.0373 46.3821C30.348 44.0585 28.1633 42.3599 25.5715 42.3599C22.7399 42.3599 20.3979 44.3888 19.9546 47.0426C18.4994 47.2937 17.2176 48.0452 16.3147 49.1189C16.0164 49.024 15.698 48.9706 15.3655 48.9706C13.6705 48.9706 12.294 50.3193 12.294 51.9843C12.294 53.6276 13.6363 54.9624 15.303 54.9941C15.303 54.9941 15.303 54.996 15.305 54.996H24.1668H26.7243H27.8328H33.617H37.283C37.2851 54.9901 37.2871 54.9842 37.2891 54.9802C37.3475 54.9842 37.4019 54.996 37.4604 54.996C38.6112 54.996 39.5403 54.0824 39.5403 52.9553C39.5403 51.8518 38.6434 50.956 37.5249 50.9224Z" fill="#C5E1F9"/>
<path d="M20.271 43.7105C19.5454 43.7105 18.8662 43.9162 18.2918 44.2701C18.2636 41.209 15.7262 38.7332 12.5983 38.7332C10.1435 38.7332 8.05962 40.2578 7.25547 42.3915C6.65085 42.176 5.99785 42.0514 5.31665 42.0514C2.88808 42.0514 0.822287 43.5424 0 45.6386C0.503852 46.0182 1.12863 46.2536 1.80984 46.2654V46.2674H10.6716H13.2291H14.3376H20.1218H23.7879C23.7899 46.2634 23.7919 46.2575 23.7939 46.2516C23.806 46.2536 23.8221 46.2536 23.8322 46.2555C23.3485 44.7784 21.9377 43.7105 20.271 43.7105Z" fill="#EAF4FE"/>
<path d="M37.928 49.8763C37.9743 50.8374 37.2165 51.6541 36.235 51.6996C35.2575 51.745 34.4232 51.0015 34.3788 50.0405C34.3325 49.0794 35.0903 48.2627 36.0698 48.2172C37.0513 48.1717 37.8836 48.9153 37.928 49.8763Z" fill="#C5E1F9"/>
<path d="M42.7992 51.397C42.9222 51.0173 42.9846 50.61 42.9625 50.1888C42.8718 48.2825 41.2211 46.8072 39.2763 46.8962C37.3314 46.9852 35.8299 48.6068 35.9206 50.5131C35.9408 50.9343 36.0395 51.3337 36.1987 51.7015L42.7992 51.397Z" fill="#C5E1F9"/>
<path d="M17.2922 44.7981C17.2922 46.8191 15.6214 48.4585 13.5597 48.4585C11.4999 48.4585 9.82915 46.8191 9.82915 44.7981C9.82915 42.7771 11.4999 41.1378 13.5597 41.1378C15.6214 41.1378 17.2922 42.7771 17.2922 44.7981Z" fill="#C5E1F9"/>
<path d="M26.4865 25.7549C24.588 25.7549 23.0482 28.2643 23.0482 31.3571C23.0482 31.7486 23.0724 32.1323 23.1208 32.5021H29.8502C29.8986 32.1323 29.9228 31.7506 29.9228 31.3571C29.9248 28.2643 28.387 25.7549 26.4865 25.7549Z" fill="#0450CF"/>
<path d="M25.5946 25.7549C24.1898 25.7549 23.0511 28.2643 23.0511 31.3571C23.0511 31.7486 23.0693 32.1323 23.1055 32.5021H28.0836C28.1179 32.1323 28.136 31.7506 28.136 31.3571C28.136 28.2643 26.9973 25.7549 25.5946 25.7549Z" fill="#0561FC"/>
<path d="M23.2417 12.3316C23.2417 18.2997 20.1239 23.4946 15.5267 26.186C15.3897 26.3125 15.2526 26.4351 15.1216 26.5538C14.2711 27.3151 14.5472 30.9102 14.5472 30.9102H23.286C23.286 30.9102 23.286 12.1952 23.286 10.1089C23.286 10.4313 23.2578 10.8367 23.2074 11.3034C23.2256 11.6435 23.2417 11.9856 23.2417 12.3316Z" fill="#0561FC"/>
<path d="M23.286 19.2984C21.8934 22.7807 19.2613 25.6679 15.9137 27.4516C15.7625 27.5781 15.6134 27.7007 15.4683 27.8194C14.8999 28.2821 14.7911 29.7969 14.7911 30.9102H23.286C23.286 30.9122 23.286 24.8907 23.286 19.2984Z" fill="#EAF4FE"/>
<path d="M15.559 30.489C15.4219 30.5879 15.3111 30.7322 15.2184 30.9102H23.286C23.286 30.9102 23.286 27.8273 23.286 24.0246C21.5911 26.5834 19.0859 28.7013 16.0648 30.1212C15.8915 30.2477 15.7242 30.3703 15.559 30.489Z" fill="#C5E1F9"/>
<path d="M29.7365 12.3316C29.7365 18.2997 32.8524 23.4946 37.4515 26.186C37.5886 26.3125 37.7236 26.4351 37.8566 26.5538C38.7051 27.3151 38.429 30.9102 38.429 30.9102H29.6922C29.6922 30.9102 29.6922 12.1952 29.6922 10.1089C29.6922 10.4313 29.7204 10.8367 29.7708 11.3034C29.7486 11.6435 29.7365 11.9856 29.7365 12.3316Z" fill="#0561FC"/>
<path d="M29.6889 19.2984C31.0836 22.7807 33.7117 25.6679 37.0613 27.4516C37.2125 27.5781 37.3616 27.7007 37.5067 27.8194C38.0751 28.2821 38.1839 29.7969 38.1819 30.9102H29.6889C29.6889 30.9122 29.6889 24.8907 29.6889 19.2984Z" fill="#EAF4FE"/>
<path d="M37.416 30.489C37.5511 30.5879 37.6619 30.7322 37.7567 30.9102H29.687C29.687 30.9102 29.687 27.8273 29.687 24.0246C31.3839 26.5834 33.8871 28.7013 36.9082 30.1212C37.0815 30.2477 37.2528 30.3703 37.416 30.489Z" fill="#C5E1F9"/>
<path d="M29.9127 30.9122V9.40693C29.9127 7.43933 28.4213 1.05203 26.4885 0C24.5557 1.05203 23.0643 7.43735 23.0643 9.40693V30.9122H29.9127Z" fill="#C5E1F9"/>
<path d="M26.4865 0C26.4683 0.00988746 26.4502 0.0257074 26.428 0.0375724V30.9122H29.9127V9.40693C29.9127 7.43735 28.4213 1.05203 26.4865 0Z" fill="#EAF4FE"/>
<path d="M24.0398 4.39201H28.9332C28.3205 2.40463 27.4579 0.527991 26.4865 0C25.5151 0.527991 24.6565 2.40463 24.0398 4.39201Z" fill="#0561FC"/>
<path d="M26.428 4.39201H28.9332C28.3205 2.40463 27.4579 0.527991 26.4865 0C26.4683 0.00988746 26.4502 0.0257074 26.428 0.0375724V4.39201Z" fill="#0450CF"/>
<path d="M28.5946 7.95348C28.4535 8.2679 27.988 8.14925 27.4418 7.94952C26.817 7.71025 26.1197 7.71025 25.4949 7.94952C24.9487 8.14925 24.4832 8.2679 24.3441 7.95348C24.199 7.64697 24.5396 6.90541 25.2511 6.63449C26.033 6.33391 26.9077 6.33391 27.6917 6.63449C28.3991 6.90343 28.7377 7.64499 28.5946 7.95348Z" fill="#0561FC"/>
<path d="M19.5031 25.7549C18.6728 25.7549 17.9996 28.2643 17.9996 31.3571C17.9996 31.7486 18.0117 32.1323 18.0298 32.5021H20.9764C20.9965 32.1323 21.0066 31.7506 21.0066 31.3571C21.0086 28.2643 20.3355 25.7549 19.5031 25.7549Z" fill="#0561FC"/>
<path d="M19.5031 25.7549C19.2854 25.7549 19.0819 25.9289 18.8965 26.2354C19.5797 26.6012 20.1037 28.7844 20.1037 31.4283C20.1037 31.7961 20.0936 32.154 20.0755 32.5021H20.9784C20.9985 32.1323 21.0086 31.7506 21.0086 31.3571C21.0086 28.2643 20.3355 25.7549 19.5031 25.7549Z" fill="#0450CF"/>
<path d="M33.4699 25.7549C32.6415 25.7549 31.9664 28.2643 31.9664 31.3571C31.9664 31.7486 31.9765 32.1323 31.9966 32.5021H34.9411C34.9613 32.1323 34.9714 31.7506 34.9714 31.3571C34.9734 28.2643 34.3022 25.7549 33.4699 25.7549Z" fill="#0561FC"/>
<path d="M33.4699 25.7549C33.2542 25.7549 33.0487 25.9289 32.8612 26.2354C33.5444 26.6012 34.0684 28.7844 34.0684 31.4283C34.0684 31.7961 34.0584 32.154 34.0382 32.5021H34.9411C34.9613 32.1323 34.9714 31.7506 34.9714 31.3571C34.9734 28.2643 34.3022 25.7549 33.4699 25.7549Z" fill="#0450CF"/>
<path d="M46.6184 53.0067L46.4935 53.7304L45.7437 53.7463C45.7437 53.7463 45.1814 53.7581 45.0403 53.7601C44.8993 53.7641 44.0548 53.7799 44.0548 53.7799L44.0488 53.5149C44.0488 53.5149 45.2117 53.0937 45.4354 52.6468C45.6631 52.2018 46.6184 53.0067 46.6184 53.0067Z" fill="#00046D"/>
<path d="M54.2447 53.683L54.2367 54.031L52.2676 53.9895L52.2414 53.0541L53.4285 53.0403C53.4305 53.0403 54.0593 53.6296 54.2447 53.683Z" fill="#00046D"/>
<path d="M57.2336 14.6868C57.2336 14.6868 57.3424 12.6441 57.2416 12.6401C57.1489 12.6362 57.0985 12.7726 57.0985 12.7726L56.9817 13.3461L57.0361 12.1023C57.0361 12.1023 56.9353 12.0311 56.8567 12.1141C56.8184 12.1556 56.7982 12.2308 56.7862 12.2901L56.7358 11.95C56.7358 11.95 56.7378 11.9005 56.6491 11.8946C56.5544 11.8887 56.508 12.0291 56.508 12.0291L56.3669 13.182L56.1312 11.9223C56.1312 11.9223 56.0445 11.7918 55.9437 11.9144C55.9095 11.9579 55.9417 12.1398 55.9417 12.1398L55.9699 12.4602L56.0163 13.176L55.9498 13.7436C55.9498 13.7436 55.976 14.0323 55.6394 13.4727C55.4479 13.1543 55.2786 13.3184 55.2786 13.3184L55.3613 13.5478C55.3613 13.5478 55.6333 14.1588 55.7623 14.3961C55.8671 14.5919 56.5504 14.851 56.7862 14.936L53.6381 21.5646C53.6381 21.5646 52.969 23.6943 55.6696 22.6344C57.9087 21.7544 57.3686 16.6861 57.1187 14.9815L57.2336 14.6868Z" fill="#F7B68B"/>
<path d="M54.3999 27.0462L55.9699 23.3166C55.9699 23.3166 54.3233 21.001 53.8074 20.7498C53.7167 20.7043 52.0318 22.8479 50.9858 23.8762C49.8189 25.0192 53.8074 25.5729 54.3999 27.0462Z" fill="#FD2227"/>
<path d="M53.1362 34.1137C53.1362 34.2818 49.3473 43.663 49.3473 43.663L46.7837 52.9355H45.0766L46.82 43.2616L48.39 34.0148L53.1362 34.1137Z" fill="#0561FC"/>
<path d="M51.2579 36.1565C51.4635 36.7596 52.1104 44.1515 52.1104 44.1515L52.0741 53.3587H53.8497L54.3636 44.2859L55.6958 34.09L50.6452 34.6536L51.2579 36.1565Z" fill="#0561FC"/>
<path d="M49.6556 23.7635C49.6556 23.7635 47.3681 25.1043 46.5499 25.9071C45.7316 26.712 46.8925 25.2031 47.4709 28.8536C48.0514 32.504 47.4891 36.0477 47.5918 36.0813C47.6946 36.1149 56.0727 34.3787 56.0727 34.3787C56.0727 34.3787 55.196 25.5176 54.3999 24.4319C53.8759 23.718 53.1362 23.5282 53.1362 23.5282C53.1362 23.5282 50.9515 23.5302 49.6556 23.7635Z" fill="#FD2227"/>
<path d="M50.6412 33.0755C50.5585 33.0755 50.5021 32.8145 50.5162 32.7394L51.3224 27.9835C51.3365 27.9103 51.4131 27.5821 51.4957 27.5821H54.2689C54.3515 27.5821 54.408 27.8095 54.3939 27.8826L53.5877 32.6563C53.5756 32.7295 53.497 33.0755 53.4124 33.0755H50.6412Z" fill="#0561FC"/>
<path d="M45.1149 29.5912C45.1149 29.5912 44.2604 31.2997 44.3289 32.773C44.3974 34.2462 49.2183 33.9575 50.4054 33.3761C50.746 33.208 51.4292 33.1091 51.4292 33.1091L52.1809 32.3043L52.4188 31.802C52.4188 31.802 52.2313 31.2088 52.0761 31.3334C51.4796 31.8198 50.8649 32.2707 50.7278 32.2549C50.617 32.241 50.625 31.9029 50.5908 31.8356C50.4537 31.5667 50.2844 31.9207 50.1635 32.6405C50.1172 32.9134 48.3194 32.0037 46.9892 31.9365C46.8502 31.9286 47.3641 30.0618 47.3641 30.0618C47.3641 30.0618 46.0702 29.524 45.1149 29.5912Z" fill="#F7B68B"/>
<path d="M46.2415 26.1761C46.2415 26.1761 44.3289 29.1225 44.603 29.257C44.8771 29.3915 46.3786 30.4969 47.1968 31.1653C48.0151 31.8357 48.0514 26.9789 46.2415 26.1761Z" fill="#DD000B"/>
<path d="M50.1393 25.4721C50.8629 25.5413 51.5461 24.9223 51.925 23.9692C51.401 23.726 50.9153 23.192 50.8931 22.4643C50.8588 21.3352 49.575 22.3655 49.575 22.3655C49.575 22.3655 49.9459 23.5935 49.4742 23.9929C49.0974 24.3073 49.5528 25.4167 50.1393 25.4721Z" fill="#F7B68B"/>
<path d="M48.5008 21.1493C48.5008 21.1493 46.7414 20.7281 47.215 19.6662C47.6886 18.6043 47.735 19.2904 47.7571 18.8475C47.7793 18.4045 47.5314 17.4079 48.14 17.5404C48.7487 17.6729 49.2002 17.6293 49.833 17.2754C50.4638 16.9214 50.7802 16.6782 50.9838 17.3426C51.1853 18.007 51.1632 17.9181 51.8847 17.9853C52.6062 18.0525 52.8097 18.185 52.5619 18.5607C52.314 18.9365 51.9532 19.0709 52.2898 19.4467C52.6284 19.8224 52.6969 20.2001 52.4248 20.4651C52.1527 20.7301 50.9475 21.2284 50.9475 21.2284L48.5008 21.1493Z" fill="#212A54"/>
<path d="M51.2317 20.3227C51.2317 20.3227 51.8041 19.9509 51.9391 20.2258C52.0741 20.5007 52.0097 20.9812 51.796 21.2145C51.5804 21.4499 51.3264 21.7742 51.1591 21.2323C50.9939 20.6905 51.2317 20.3227 51.2317 20.3227Z" fill="#EC9568"/>
<path d="M48.1139 21.3767C48.1139 21.3767 47.8478 20.6707 48.4081 20.738C48.7185 20.7755 49.0974 21.082 49.184 21.3846C49.2707 21.6872 49.4158 22.0728 48.8596 21.9205C48.3053 21.7722 48.1139 21.3767 48.1139 21.3767Z" fill="#EC9568"/>
<path d="M50.9898 22.9706C50.9334 22.8143 50.8991 22.6462 50.8931 22.4663C50.8588 21.3371 49.575 22.3674 49.575 22.3674C49.575 22.3674 49.9459 23.5954 49.4743 23.9949C49.4521 24.0127 49.4319 24.0305 49.4138 24.0463C50.1172 23.9652 50.7077 23.548 50.9898 22.9706Z" fill="#EC9568"/>
<path d="M48.3537 20.6391C48.3537 20.6391 48.787 22.1894 49.5387 22.7649C50.0446 23.1525 50.8125 22.842 51.2639 22.0233C51.7053 21.2205 51.534 18.448 50.6553 18.8791C49.7745 19.3102 50.5203 18.3155 50.0446 18.6478C49.573 18.978 50.351 20.2733 48.3537 20.6391Z" fill="#F7B68B"/>
<path d="M49.8632 20.912C49.8632 21.2561 49.5791 21.5369 49.2264 21.5369C48.8757 21.5369 48.5895 21.258 48.5895 20.912C48.5895 20.5679 48.8757 20.2871 49.2264 20.2871C49.5791 20.2891 49.8632 20.5679 49.8632 20.912Z" stroke="#212A54" stroke-width="0.3462" stroke-miterlimit="10"/>
<path d="M51.2942 20.6312C51.2942 20.9753 51.01 21.2561 50.6573 21.2561C50.3066 21.2561 50.0224 20.9753 50.0224 20.6312C50.0224 20.2871 50.3066 20.0063 50.6573 20.0063C51.01 20.0063 51.2942 20.2871 51.2942 20.6312Z" stroke="#212A54" stroke-width="0.3462" stroke-miterlimit="10"/>
<path d="M49.8128 20.8151L50.1454 20.7637" stroke="#212A54" stroke-width="0.3462" stroke-miterlimit="10"/>
<path d="M49.8773 22.1993C49.8773 22.1993 50.4517 22.3654 50.8931 21.6357" stroke="#212A54" stroke-width="0.3462" stroke-miterlimit="10"/>
</svg>
